<svg xmlns="http://www.w3.org/2000/svg" width="250" height="258.947"><circle data-name="Elipse 710" cx="123.95" cy="123.95" r="123.95" transform="translate(2.101 11.048)" fill="#c9d3eb" opacity=".35"/><circle data-name="Elipse 711" cx="123.95" cy="123.95" r="123.95" transform="translate(0 6.947)" fill="#cce3f2"/><g data-name="LightBlue Snappy"><g data-name="Back Arm" fill-rule="evenodd"><path data-name="Caminho 32824" d="M193.374 223.596s35.68-37.327 33.4-48.559-58.186-68.108-75.033-43.618c-5.32 7.727-7.686 23.941 34.624 47.714 0 0-17.776 30.7-23.393 36.313s-9.036 20.564-3.547 28.08a68.64 68.64 0 0 0 3.921 4.925 123.551 123.551 0 0 0 32.527-16.6 26.949 26.949 0 0 0-2.499-8.255z" fill="#4580c2"/><path data-name="Caminho 32825" d="M193.163 223.596s-14.441 11.907-18.073 13.934a41.014 41.014 0 0 0 8.445-3.631 18.137 18.137 0 0 1 2.457 4.322q1.819-1.053 3.6-2.171a19.841 19.841 0 0 0-1.492-3.967 69.247 69.247 0 0 0 5.32-7.728z" fill="#2e578c"/></g><path data-name="União 1" d="M44.303 225.864a42.625 42.625 0 0 0 15.089 4.275 23.4 23.4 0 0 0 17.23-4.9 22.636 22.636 0 0 0 7.051-13.174 40.038 40.038 0 0 0-1.477-21.112c-3.253-9.8-9.077-18.664-12.879-28.335a184.34 184.34 0 0 1-4.213-12.169c-1.392-.8-2.075-.254-4.442-4-2.528-4-1.565-12.57-.612-17.965q-.492-3.3-.813-6.605c-5.951-4.247-19.62-2.646-21.124-10.094-1.5-7.431 19.181-22.668 23.8-25.965q.207-.759.429-1.516c-5-8.527-16.047-7.836-16.417-14.661-.378-7.051 42.735-29.262 42.735-29.262a205 205 0 0 0-7.639 21.488c14.967 13.69 33.5 22.555 50.452 33.4a114.209 114.209 0 0 1 31.289 27.574c10.47 14.018 4.224 30.528 6.839 47.711.8 5.829 1.183 11.741 1.438 17.653a228.363 228.363 0 0 1-.928 32.216c-1 9.547-1.8 18.437-3.355 26.825a123.624 123.624 0 0 1-42.8 7.593 123.438 123.438 0 0 1-79.653-28.977z" fill="#4580c2" stroke="rgba(0,0,0,0)"/><path data-name="Caminho 32828" d="M172.303 151.181c-1.266-1.605-34.793-44.421-65.532-50.67-8.191 7.093-9.8 19.634 1.1 41.253 16.745 33.142 30.429 80.105 7.992 112.813 2.675.174 5.371.271 8.09.271a123.534 123.534 0 0 0 48.521-9.86c12.877-42.821 1.794-86.754.086-92.962z" fill="#fbce3b" fill-rule="evenodd"/><path data-name="Caminho 32829" d="M130.965 230.394a78 78 0 0 1 45.054 0c.381-2.111.719-4.222 1.015-6.249-29.517-7.01-46.069 6.249-46.069 6.249z" fill="#eca93e" fill-rule="evenodd"/><path data-name="União 2" d="M169.582 177.07c-14.562-5.352-29.133-16.037-41.61-27.644a73.519 73.519 0 0 0-8.832 4.752s1.828-3.141 6.881-6.59a214.871 214.871 0 0 1-25.584-29.174 27.751 27.751 0 0 1 0-6.25c8.264 5.1 28.572 17.362 45.7 27.8a87.83 87.83 0 0 1 15.232-1.24c1.644 1.6 3 3.125 4.22 4.519a73.45 73.45 0 0 0-14.159-.042c8.958 5.477 16.467 10.114 19.988 12.416l2.408 1.477a208.757 208.757 0 0 1 3.671 22.339l-.029-.007c.161 1.547.314 3.136.451 4.776a76.567 76.567 0 0 0-48.137 7.178s13.512-12.738 39.8-14.31z" fill="#eca93e" stroke="rgba(0,0,0,0)"/><g data-name="Front Arm" fill-rule="evenodd"><path data-name="Caminho 32833" d="M86.249 204.89c-16.89-10.26-17.945 24.575-17.945 24.575l-1.773.3a25.924 25.924 0 0 0 .894 11.475 123.132 123.132 0 0 0 24.025 9.3 12.514 12.514 0 0 0 5.313-3.714c6.883-8.452 16.89-25.342-10.514-41.936z" fill="#2e578c"/><path data-name="Caminho 32834" d="M68.895 161.948c3.59 7.812 6.841 13.85 7.01 14.4s22.295-27.657 18.156-32.217-21.661 11.694-25.166 17.817z" fill="#2e578c"/><path data-name="Caminho 32835" d="M90.599 121.496c23.941 23.1-25.758 53.669-25.758 53.669 5.405 3.42 12.246 15.116 17.355 23.646s7.136 7.136 13.385 14.23-11.57 17.691-11.57 17.691-59.79-32.3-59.621-52.992c0-2.575 13.893-25.588 27.911-39.859 7.051-7.18 26.855-27.405 38.298-16.385z" fill="#4580c2"/><path data-name="Caminho 32836" d="M67.375 219.247s-2.811 14.667 3.192 23.543q5.528 2.641 11.349 4.741c3.38-.3 7.5-1.1 10.245-3.076 0 0 13.47-20.69 3.42-31.415s-28.206 6.207-28.206 6.207z" fill="#4580c2"/><path data-name="Caminho 32837" d="M67.122 220.809s17.269 9.247 20.267 10.092a15.923 15.923 0 0 1-8.824-1.309s-4.223 8.444.718 13.681c0 0-7.938-1.394-5.109-14.652l-7.22-7.432z" fill="#2e578c"/></g><path data-name="Caminho 32838" d="M82.618 53.937S91.612.902 113.611.016c14.482-.634 21.788 17.819 21.788 17.819a46.443 46.443 0 0 1 25 7.431s4.224-7.3 10.937-4.94 14.357 17.734 11.612 42.985a22.044 22.044 0 0 1 15.792 10.851 11.772 11.772 0 0 1-7.559 4.856c-4.56.38-24.236-6.8-29.557-2.111a17.1 17.1 0 0 0-7.052 16.891s-21.746-2.2-31.415-14.568-17.991-36.356-40.539-25.293z" fill="#4580c2" fill-rule="evenodd"/><path data-name="Caminho 32839" d="M157.483 57.779s5.4-17.818 15.792-22.8a193.308 193.308 0 0 0 2.828 25.715 161.363 161.363 0 0 0-18.62-2.915z" fill="#f1f1f2"/><path data-name="Caminho 32840" d="M110.444 21.259s13.385 6.46 22.379 34.2a191.211 191.211 0 0 0-30.317-2.7 72.915 72.915 0 0 0 7.938-31.5z" fill="#f1f1f2"/><path data-name="Caminho 32841" d="M115.933 33.584c3.252 0 5.912 3.632 5.912 8.149s-2.66 8.107-5.912 8.107-5.91-3.631-5.91-8.107 2.617-8.149 5.91-8.149" fill="#2e578c" fill-rule="evenodd"/><path data-name="Caminho 32842" d="M165.927 55.204c2.576 0 4.646-2.744 4.646-6.164s-2.069-6.165-4.646-6.165a4.186 4.186 0 0 0-1.435.338 16.283 16.283 0 0 0-3.167 5.615 1.4 1.4 0 0 0 0 .423c-.042 3.208 2.027 5.953 4.602 5.953z" fill="#2e578c" fill-rule="evenodd"/><path data-name="Caminho 32843" d="M108.889 65.971s-12.021-9.9-20.847-1.205c-7.3 7.094 0 23.08 0 23.08s-.592-11.886 4.137-11.168c0 0 4.584 24.044 41.911 49.674s47.714 23.224 55.821 21.113 18.178-6.312 15.053-12.73-23.937-24.034-23.937-24.034-7.541 7.756-23.883 2.056c-22.336-9.023-39.68-24.336-54.46-43.358 0 0 .26-3.817 5.791-1.157" fill="#f68b51" fill-rule="evenodd"/><path data-name="Caminho 32844" d="M102.337 96.964a63.335 63.335 0 0 1 58.481 15.75s14.947-3.209 17.607-.549a45.479 45.479 0 0 1 19.847 33.779c.549 6.544-14.948 10.261-49.488-6.925-21.45-10.809-46.447-42.055-46.447-42.055z" fill="#f26a23" fill-rule="evenodd"/><path data-name="Caminho 32845" d="M144.309 101.313l.8.422z" fill="#c56428" stroke="rgba(0,0,0,0)" fill-rule="evenodd"/><path data-name="Caminho 32846" d="M180.368 111.7s-4.645 19.044-11.823 16.891c-2.406-.718-1.435-6.122-2.406-9.838s-3.758-10.811-3.758-10.811z" fill="#ebeef2" fill-rule="evenodd"/><path data-name="Caminho 32847" d="M215.879 104.48s-1.477 19.55-8.909 18.621c-2.491-.3-2.407-5.785-3.969-9.29s-5.405-10.091-5.405-10.091z" fill="#ebeef2" fill-rule="evenodd"/><path data-name="Caminho 32848" d="M223.775 87.337c-.93-13.767-19.085-19.8-32.429-10.135-10.894-2.406-22.97-9.67-33.779 1.225a12.668 12.668 0 0 0-3.336 15.117s-22.633-3.633-30.444-15.159-18.03-26.982-28.966-28.08c-5.827-.548-15.665-1.394-21.366 9.712s-8.445 31.162 33.78 62.915 60.719 40.325 69.924 40.282c11.7 0 12.414-4.223 25.884-6.249 6.883-.972 12.119-12.667 4.56-22.8s-24.971-22.089-24.971-22.089l5.854 5.239c5.668 5.136 14.019 13.135 15.993 17.271 3.124 6.545-6.122 10.683-14.229 12.667s-18.537 4.223-55.821-21.112-41.3-50.965-41.3-50.965c-4.729-.718-5.278 9.543-5.278 9.543s-5.446-11.866 1.858-18.959c8.825-8.445 17.945 1.983 17.945 1.983h-.549c-5.531-2.659-6.291 2.112-6.291 2.112a136.524 136.524 0 0 0 56.327 42.689c16.257 5.7 24.786-.719 24.786-.719a157.924 157.924 0 0 0 23.055-1.857c5.827-1.561 20.102-4.009 18.793-22.631z" fill="#fbce3b" fill-rule="evenodd"/><path data-name="Caminho 32849" d="M169.686 85.859c3.8-1.183 6.714 3.927 1.731 6.122-.718 1.9.422 3.969 3.462 4.688a6 6 0 0 1-8-2.809 6 6 0 0 1 2.808-8" fill="#eca93e" fill-rule="evenodd"/><path data-name="Caminho 32850" d="M212.501 84.296c-3.124-1.014-5.531 3.209-1.393 5.066.549 1.563-.381 3.252-2.914 3.844 8.022 1.646 8.444-7.433 4.223-8.91" fill="#eca93e" fill-rule="evenodd"/></g></svg>